<?xml version="1.0" encoding="utf-8" ?>
<svg baseProfile="tiny" height="218" version="1.2" width="180" xmlns="http://www.w3.org/2000/svg" xmlns:ev="http://www.w3.org/2001/xml-events" xmlns:xlink="http://www.w3.org/1999/xlink"><defs /><path d="M 68,9 L 67,10 L 66,10 L 63,13 L 63,14 L 62,15 L 62,58 L 63,59 L 63,60 L 66,63 L 67,63 L 68,64 L 108,64 L 109,65 L 109,90 L 108,91 L 107,91 L 106,92 L 105,92 L 100,97 L 100,98 L 98,100 L 85,100 L 84,99 L 84,91 L 85,90 L 85,88 L 84,87 L 84,84 L 82,82 L 81,82 L 80,81 L 78,81 L 77,80 L 39,80 L 38,79 L 18,79 L 17,80 L 16,80 L 15,81 L 14,81 L 12,83 L 12,84 L 11,85 L 11,124 L 12,125 L 12,126 L 15,129 L 17,129 L 18,130 L 77,130 L 78,129 L 80,129 L 81,128 L 82,128 L 82,127 L 84,125 L 84,112 L 85,111 L 94,111 L 95,110 L 98,110 L 100,112 L 100,113 L 101,114 L 101,115 L 104,118 L 105,118 L 106,119 L 107,119 L 109,121 L 109,144 L 108,145 L 54,145 L 53,146 L 51,146 L 49,148 L 49,149 L 48,150 L 48,190 L 50,192 L 50,193 L 51,193 L 52,194 L 54,194 L 55,195 L 57,195 L 58,194 L 99,194 L 102,197 L 103,197 L 107,201 L 108,201 L 111,204 L 112,204 L 114,206 L 115,206 L 116,207 L 118,207 L 119,208 L 120,208 L 121,207 L 123,207 L 124,206 L 124,205 L 125,204 L 125,151 L 124,150 L 124,149 L 121,146 L 120,146 L 119,145 L 119,120 L 120,119 L 122,119 L 126,115 L 126,114 L 128,112 L 128,110 L 129,109 L 129,101 L 128,100 L 128,98 L 126,96 L 126,95 L 124,93 L 123,93 L 122,92 L 121,92 L 119,90 L 119,65 L 120,64 L 158,64 L 159,63 L 160,63 L 161,62 L 162,62 L 162,61 L 164,59 L 164,56 L 165,55 L 165,18 L 164,17 L 164,14 L 160,10 L 159,10 L 158,9 Z" fill="white" /></svg>